# WaveFront *.obj file (generated by Autodesk ATF)

mtllib 1m-triangle-patterned.mtl

g Solid1

v -19.685039 0.000000 19.685039
v 19.685039 39.370079 19.685039
v 19.685039 39.370079 -19.685039
v -19.685039 0.000000 -19.685039
v 19.685039 0.000000 -19.685039
v 19.685039 0.000000 19.685039
vt -141.421356 -0.000000 0.000000
vt -0.000000 -0.000000 0.000000
vt -141.421356 100.000000 0.000000
vt -0.000000 100.000000 0.000000
vt 100.000000 0.000000 0.000000
vt -0.000000 100.000000 0.000000
vt -0.000000 0.000000 0.000000
vt -0.000000 0.000000 0.000000
vt 100.000000 0.000000 0.000000
vt -0.000000 100.000000 0.000000
vt 100.000000 100.000000 0.000000
vt 100.000000 100.000000 0.000000
vt 0.000000 0.000000 0.000000
vt 100.000000 0.000000 0.000000
vt 50.000000 50.000000 0.000000
vt -50.000000 50.000000 0.000000
vt 50.000000 -50.000000 0.000000
vt -50.000000 -50.000000 0.000000
vn -1.796051 1.796051 -0.000000
vn -1.796051 1.796051 -0.000000
vn -1.796051 1.796051 -0.000000
vn -1.796051 1.796051 -0.000000
vn 0.000000 0.000000 -2.540000
vn 0.000000 0.000000 -2.540000
vn 0.000000 0.000000 -2.540000
vn 2.540000 0.000000 0.000000
vn 2.540000 0.000000 0.000000
vn 2.540000 0.000000 0.000000
vn 2.540000 0.000000 0.000000
vn 0.000000 -0.000000 2.540000
vn 0.000000 -0.000000 2.540000
vn 0.000000 -0.000000 2.540000
vn 0.000000 -2.540000 0.000000
vn 0.000000 -2.540000 0.000000
vn 0.000000 -2.540000 0.000000
vn 0.000000 -2.540000 0.000000
usemtl 153,176,255
f 1/1/1 2/2/2 4/3/3
f 4/3/3 2/2/2 3/4/4
f 4/5/5 3/6/6 5/7/7
f 6/8/8 5/9/9 2/10/10
f 2/10/10 5/9/9 3/11/11
f 2/12/12 1/13/13 6/14/14
f 5/15/15 6/16/16 4/17/17
f 4/17/17 6/16/16 1/18/18

# 6 vertices
# 18 texture params
# 18 normals
# 8 facets

# 1 groups
