# WaveFront *.obj file (generated by Autodesk ATF)

mtllib 1m-triangle.mtl

g Solid1

v -0.500000 0.000000 -0.500000
v -0.500000 0.000000 0.500000
v -0.500000 1.000000 -0.500000
v 0.500000 0.000000 -0.500000
v 0.500000 0.000000 0.500000
v 0.500000 1.000000 -0.500000
vt -141.421356 0.000000 0.000000
vt -0.000000 0.000000 0.000000
vt -0.000000 100.000000 0.000000
vt -141.421356 100.000000 0.000000
vt 100.000000 0.000000 0.000000
vt 0.000000 100.000000 0.000000
vt 0.000000 0.000000 0.000000
vt 0.000000 0.000000 0.000000
vt 100.000000 0.000000 0.000000
vt 100.000000 100.000000 0.000000
vt 0.000000 100.000000 0.000000
vt 100.000000 100.000000 0.000000
vt 0.000000 0.000000 0.000000
vt 100.000000 0.000000 0.000000
vt -50.000000 -50.000000 0.000000
vt 50.000000 -50.000000 0.000000
vt 50.000000 50.000000 0.000000
vt -50.000000 50.000000 0.000000
vn 0.000000 70.710677 70.710677
vn 0.000000 70.710677 70.710677
vn 0.000000 70.710677 70.710677
vn 0.000000 70.710677 70.710677
vn -100.000000 0.000000 0.000000
vn -100.000000 0.000000 0.000000
vn -100.000000 0.000000 0.000000
vn 0.000000 0.000000 -100.000000
vn 0.000000 0.000000 -100.000000
vn 0.000000 0.000000 -100.000000
vn 0.000000 0.000000 -100.000000
vn 100.000000 0.000000 0.000000
vn 100.000000 0.000000 0.000000
vn 100.000000 0.000000 0.000000
vn 0.000000 -100.000000 0.000000
vn 0.000000 -100.000000 0.000000
vn 0.000000 -100.000000 0.000000
vn 0.000000 -100.000000 0.000000
usemtl 191,191,191
f 5/1/1 6/2/2 2/4/4
f 2/4/4 6/2/2 3/3/3
f 2/5/5 3/6/6 1/7/7
f 4/8/8 1/9/9 6/11/11
f 6/11/11 1/9/9 3/10/10
f 6/12/12 5/13/13 4/14/14
f 2/15/15 1/16/16 5/18/18
f 5/18/18 1/16/16 4/17/17

# 6 vertices
# 18 texture params
# 18 normals
# 8 facets

# 1 groups
