# WaveFront *.obj file (generated by Autodesk ATF)

mtllib 3x3mTile.mtl

g Solid1

v -3.500000 0.000000 -1.500000
v -3.500000 0.000000 1.500000
v -3.500000 5.000000 -1.500000
v -3.500000 5.000000 1.500000
v -2.000000 1.000000 -1.500000
v -2.000000 1.000000 1.500000
v -1.500000 0.250000 -1.500000
v -1.500000 0.250000 1.500000
v -1.500000 1.000000 -1.500000
v -1.500000 1.000000 1.500000
v 1.500000 0.250000 -1.500000
v 1.500000 0.250000 1.500000
v 1.500000 1.000000 -1.500000
v 1.500000 1.000000 1.500000
v 2.000000 1.000000 -1.500000
v 2.000000 1.000000 1.500000
v 3.500000 0.000000 -1.500000
v 3.500000 0.000000 1.500000
v 3.500000 5.000000 -1.500000
v 3.500000 5.000000 1.500000
vt 150.000000 25.000000 0.000000
vt -150.000000 25.000000 0.000000
vt -150.000000 -25.000000 0.000000
vt 150.000000 -25.000000 0.000000
vt 0.000000 0.000000 0.000000
vt 300.000000 0.000000 0.000000
vt 300.000000 500.000000 0.000000
vt 0.000000 500.000000 0.000000
vt 0.000000 0.000000 0.000000
vt 300.000000 0.000000 0.000000
vt 300.000000 500.000000 0.000000
vt 0.000000 500.000000 0.000000
vt 150.000000 25.000000 0.000000
vt -150.000000 25.000000 0.000000
vt -150.000000 -25.000000 0.000000
vt 150.000000 -25.000000 0.000000
vt 500.000000 500.000000 0.000000
vt 350.000000 100.000000 0.000000
vt 300.000000 100.000000 0.000000
vt 300.000000 25.000000 0.000000
vt 0.000000 25.000000 0.000000
vt 0.000000 100.000000 0.000000
vt -50.000000 100.000000 0.000000
vt -200.000000 500.000000 0.000000
vt -200.000000 0.000000 0.000000
vt 500.000000 0.000000 0.000000
vt -50.000000 100.000000 0.000000
vt -200.000000 500.000000 0.000000
vt -200.000000 0.000000 0.000000
vt 500.000000 0.000000 0.000000
vt 500.000000 500.000000 0.000000
vt 350.000000 100.000000 0.000000
vt 300.000000 100.000000 0.000000
vt 300.000000 25.000000 0.000000
vt 0.000000 25.000000 0.000000
vt 0.000000 100.000000 0.000000
vt 0.000000 25.000000 0.000000
vt 300.000000 25.000000 0.000000
vt 300.000000 100.000000 0.000000
vt 0.000000 100.000000 0.000000
vt -0.000000 300.000000 0.000000
vt -427.200195 300.000000 0.000000
vt -427.200195 0.000000 0.000000
vt -0.000000 0.000000 0.000000
vt 0.000000 25.000000 0.000000
vt 300.000000 25.000000 0.000000
vt 300.000000 100.000000 0.000000
vt 0.000000 100.000000 0.000000
vt -0.000000 300.000000 0.000000
vt -427.200195 300.000000 0.000000
vt -427.200195 0.000000 0.000000
vt -0.000000 0.000000 0.000000
vt -150.000000 350.000000 0.000000
vt -150.000000 -350.000000 0.000000
vt 150.000000 -350.000000 0.000000
vt 150.000000 350.000000 0.000000
vt 150.000000 150.000000 0.000000
vt -150.000000 150.000000 0.000000
vt -150.000000 -150.000000 0.000000
vt 150.000000 -150.000000 0.000000
vn 0.000000 100.000000 0.000000
vn 0.000000 100.000000 0.000000
vn 0.000000 100.000000 0.000000
vn 0.000000 100.000000 0.000000
vn 100.000000 0.000000 0.000000
vn 100.000000 0.000000 0.000000
vn 100.000000 0.000000 0.000000
vn 100.000000 0.000000 0.000000
vn -100.000000 0.000000 0.000000
vn -100.000000 0.000000 0.000000
vn -100.000000 0.000000 0.000000
vn -100.000000 0.000000 0.000000
vn 0.000000 100.000000 0.000000
vn 0.000000 100.000000 0.000000
vn 0.000000 100.000000 0.000000
vn 0.000000 100.000000 0.000000
vn 0.000000 0.000000 100.000000
vn 0.000000 0.000000 100.000000
vn 0.000000 0.000000 100.000000
vn 0.000000 0.000000 100.000000
vn 0.000000 0.000000 100.000000
vn 0.000000 0.000000 100.000000
vn 0.000000 0.000000 100.000000
vn 0.000000 0.000000 100.000000
vn 0.000000 0.000000 100.000000
vn 0.000000 0.000000 100.000000
vn 0.000000 0.000000 -100.000000
vn 0.000000 0.000000 -100.000000
vn 0.000000 0.000000 -100.000000
vn 0.000000 0.000000 -100.000000
vn 0.000000 0.000000 -100.000000
vn 0.000000 0.000000 -100.000000
vn 0.000000 0.000000 -100.000000
vn 0.000000 0.000000 -100.000000
vn 0.000000 0.000000 -100.000000
vn 0.000000 0.000000 -100.000000
vn -100.000000 0.000000 0.000000
vn -100.000000 0.000000 0.000000
vn -100.000000 0.000000 0.000000
vn -100.000000 0.000000 0.000000
vn -93.632919 35.112345 0.000000
vn -93.632919 35.112345 0.000000
vn -93.632919 35.112345 0.000000
vn -93.632919 35.112345 0.000000
vn 100.000000 0.000000 0.000000
vn 100.000000 0.000000 0.000000
vn 100.000000 0.000000 0.000000
vn 100.000000 0.000000 0.000000
vn 93.632919 35.112345 0.000000
vn 93.632919 35.112345 0.000000
vn 93.632919 35.112345 0.000000
vn 93.632919 35.112345 0.000000
vn 0.000000 -100.000000 0.000000
vn 0.000000 -100.000000 0.000000
vn 0.000000 -100.000000 0.000000
vn 0.000000 -100.000000 0.000000
vn 0.000000 100.000000 0.000000
vn 0.000000 100.000000 0.000000
vn 0.000000 100.000000 0.000000
vn 0.000000 100.000000 0.000000
usemtl 191,191,191
f 16/1/1 15/2/2 14/4/4
f 14/4/4 15/2/2 13/3/3
f 18/5/5 17/6/6 20/8/8
f 20/8/8 17/6/6 19/7/7
f 1/9/9 2/10/10 3/12/12
f 3/12/12 2/10/10 4/11/11
f 10/13/13 9/14/14 6/16/16
f 6/16/16 9/14/14 5/15/15
f 20/17/17 16/18/18 18/26/26
f 18/26/26 16/18/18 12/20/20
f 18/26/26 12/20/20 8/21/21
f 16/18/18 14/19/19 12/20/20
f 10/22/22 6/23/23 8/21/21
f 8/21/21 6/23/23 2/25/25
f 8/21/21 2/25/25 18/26/26
f 6/23/23 4/24/24 2/25/25
f 19/28/28 17/29/29 15/27/27
f 15/27/27 17/29/29 11/35/35
f 15/27/27 11/35/35 13/36/36
f 17/29/29 1/30/30 11/35/35
f 11/35/35 1/30/30 7/34/34
f 7/34/34 1/30/30 5/32/32
f 7/34/34 5/32/32 9/33/33
f 1/30/30 3/31/31 5/32/32
f 11/37/37 12/38/38 13/40/40
f 13/40/40 12/38/38 14/39/39
f 19/41/41 15/42/42 20/44/44
f 20/44/44 15/42/42 16/43/43
f 8/45/45 7/46/46 10/48/48
f 10/48/48 7/46/46 9/47/47
f 5/49/49 3/50/50 6/52/52
f 6/52/52 3/50/50 4/51/51
f 2/54/54 1/55/55 18/53/53
f 18/53/53 1/55/55 17/56/56
f 12/57/57 11/58/58 8/60/60
f 8/60/60 11/58/58 7/59/59

# 20 vertices
# 60 texture params
# 60 normals
# 36 facets

# 1 groups
